%TF.GenerationSoftware,KiCad,Pcbnew,9.0.2-unknown-202506202205~b229eca899~ubuntu25.04.1*%
%TF.CreationDate,2025-06-24T15:16:24-07:00*%
%TF.ProjectId,pico2-ice,7069636f-322d-4696-9365-2e6b69636164,REV2*%
%TF.SameCoordinates,Original*%
%TF.FileFunction,Soldermask,Bot*%
%TF.FilePolarity,Negative*%
%FSLAX46Y46*%
G04 Gerber Fmt 4.6, Leading zero omitted, Abs format (unit mm)*
G04 Created by KiCad (PCBNEW 9.0.2-unknown-202506202205~b229eca899~ubuntu25.04.1) date 2025-06-24 15:16:24*
%MOMM*%
%LPD*%
G01*
G04 APERTURE LIST*
G04 Aperture macros list*
%AMRoundRect*
0 Rectangle with rounded corners*
0 $1 Rounding radius*
0 $2 $3 $4 $5 $6 $7 $8 $9 X,Y pos of 4 corners*
0 Add a 4 corners polygon primitive as box body*
4,1,4,$2,$3,$4,$5,$6,$7,$8,$9,$2,$3,0*
0 Add four circle primitives for the rounded corners*
1,1,$1+$1,$2,$3*
1,1,$1+$1,$4,$5*
1,1,$1+$1,$6,$7*
1,1,$1+$1,$8,$9*
0 Add four rect primitives between the rounded corners*
20,1,$1+$1,$2,$3,$4,$5,0*
20,1,$1+$1,$4,$5,$6,$7,0*
20,1,$1+$1,$6,$7,$8,$9,0*
20,1,$1+$1,$8,$9,$2,$3,0*%
%AMRotRect*
0 Rectangle, with rotation*
0 The origin of the aperture is its center*
0 $1 length*
0 $2 width*
0 $3 Rotation angle, in degrees counterclockwise*
0 Add horizontal line*
21,1,$1,$2,0,0,$3*%
%AMFreePoly0*
4,1,23,0.550000,-0.750000,0.000000,-0.750000,0.000000,-0.745722,-0.065263,-0.745722,-0.191342,-0.711940,-0.304381,-0.646677,-0.396677,-0.554381,-0.461940,-0.441342,-0.495722,-0.315263,-0.495722,-0.250000,-0.500000,-0.250000,-0.500000,0.250000,-0.495722,0.250000,-0.495722,0.315263,-0.461940,0.441342,-0.396677,0.554381,-0.304381,0.646677,-0.191342,0.711940,-0.065263,0.745722,0.000000,0.745722,
0.000000,0.750000,0.550000,0.750000,0.550000,-0.750000,0.550000,-0.750000,$1*%
%AMFreePoly1*
4,1,23,0.000000,0.745722,0.065263,0.745722,0.191342,0.711940,0.304381,0.646677,0.396677,0.554381,0.461940,0.441342,0.495722,0.315263,0.495722,0.250000,0.500000,0.250000,0.500000,-0.250000,0.495722,-0.250000,0.495722,-0.315263,0.461940,-0.441342,0.396677,-0.554381,0.304381,-0.646677,0.191342,-0.711940,0.065263,-0.745722,0.000000,-0.745722,0.000000,-0.750000,-0.550000,-0.750000,
-0.550000,0.750000,0.000000,0.750000,0.000000,0.745722,0.000000,0.745722,$1*%
%AMFreePoly2*
4,1,23,0.500000,-0.750000,0.000000,-0.750000,0.000000,-0.745722,-0.065263,-0.745722,-0.191342,-0.711940,-0.304381,-0.646677,-0.396677,-0.554381,-0.461940,-0.441342,-0.495722,-0.315263,-0.495722,-0.250000,-0.500000,-0.250000,-0.500000,0.250000,-0.495722,0.250000,-0.495722,0.315263,-0.461940,0.441342,-0.396677,0.554381,-0.304381,0.646677,-0.191342,0.711940,-0.065263,0.745722,0.000000,0.745722,
0.000000,0.750000,0.500000,0.750000,0.500000,-0.750000,0.500000,-0.750000,$1*%
%AMFreePoly3*
4,1,23,0.000000,0.745722,0.065263,0.745722,0.191342,0.711940,0.304381,0.646677,0.396677,0.554381,0.461940,0.441342,0.495722,0.315263,0.495722,0.250000,0.500000,0.250000,0.500000,-0.250000,0.495722,-0.250000,0.495722,-0.315263,0.461940,-0.441342,0.396677,-0.554381,0.304381,-0.646677,0.191342,-0.711940,0.065263,-0.745722,0.000000,-0.745722,0.000000,-0.750000,-0.500000,-0.750000,
-0.500000,0.750000,0.000000,0.750000,0.000000,0.745722,0.000000,0.745722,$1*%
%AMFreePoly4*
4,1,6,0.130000,-0.115000,-0.020000,-0.275000,-0.130000,-0.275000,-0.130000,0.115000,0.130000,0.115000,0.130000,-0.115000,0.130000,-0.115000,$1*%
%AMFreePoly5*
4,1,6,0.130000,-0.275000,0.020000,-0.275000,-0.130000,-0.115000,-0.130000,0.115000,0.130000,0.115000,0.130000,-0.275000,0.130000,-0.275000,$1*%
G04 Aperture macros list end*
%ADD10C,0.127000*%
%ADD11C,0.080000*%
%ADD12C,0.002540*%
%ADD13C,2.700000*%
%ADD14C,0.650000*%
%ADD15O,1.000000X2.100000*%
%ADD16O,1.000000X1.600000*%
%ADD17R,1.700000X1.700000*%
%ADD18O,1.700000X1.700000*%
%ADD19C,0.600000*%
%ADD20FreePoly0,270.000000*%
%ADD21R,1.500000X1.000000*%
%ADD22FreePoly1,270.000000*%
%ADD23RoundRect,0.140000X0.140000X0.170000X-0.140000X0.170000X-0.140000X-0.170000X0.140000X-0.170000X0*%
%ADD24RoundRect,0.135000X0.135000X0.185000X-0.135000X0.185000X-0.135000X-0.185000X0.135000X-0.185000X0*%
%ADD25RoundRect,0.140000X0.170000X-0.140000X0.170000X0.140000X-0.170000X0.140000X-0.170000X-0.140000X0*%
%ADD26RoundRect,0.200000X0.275000X-0.200000X0.275000X0.200000X-0.275000X0.200000X-0.275000X-0.200000X0*%
%ADD27RoundRect,0.140000X-0.170000X0.140000X-0.170000X-0.140000X0.170000X-0.140000X0.170000X0.140000X0*%
%ADD28RoundRect,0.140000X-0.140000X-0.170000X0.140000X-0.170000X0.140000X0.170000X-0.140000X0.170000X0*%
%ADD29C,1.500000*%
%ADD30RoundRect,0.135000X-0.135000X-0.185000X0.135000X-0.185000X0.135000X0.185000X-0.135000X0.185000X0*%
%ADD31RoundRect,0.150000X-0.650000X-0.150000X0.650000X-0.150000X0.650000X0.150000X-0.650000X0.150000X0*%
%ADD32RoundRect,0.135000X0.185000X-0.135000X0.185000X0.135000X-0.185000X0.135000X-0.185000X-0.135000X0*%
%ADD33RoundRect,0.135000X-0.185000X0.135000X-0.185000X-0.135000X0.185000X-0.135000X0.185000X0.135000X0*%
%ADD34RoundRect,0.150000X0.650000X0.150000X-0.650000X0.150000X-0.650000X-0.150000X0.650000X-0.150000X0*%
%ADD35FreePoly2,270.000000*%
%ADD36FreePoly3,270.000000*%
%ADD37RoundRect,0.112500X-0.112500X0.187500X-0.112500X-0.187500X0.112500X-0.187500X0.112500X0.187500X0*%
%ADD38RoundRect,0.150000X0.150000X-0.587500X0.150000X0.587500X-0.150000X0.587500X-0.150000X-0.587500X0*%
%ADD39RoundRect,0.112500X0.187500X0.112500X-0.187500X0.112500X-0.187500X-0.112500X0.187500X-0.112500X0*%
%ADD40FreePoly2,90.000000*%
%ADD41FreePoly3,90.000000*%
%ADD42RoundRect,0.159000X-0.189000X0.159000X-0.189000X-0.159000X0.189000X-0.159000X0.189000X0.159000X0*%
%ADD43FreePoly2,0.000000*%
%ADD44FreePoly3,0.000000*%
%ADD45RoundRect,0.150000X0.150000X0.200000X-0.150000X0.200000X-0.150000X-0.200000X0.150000X-0.200000X0*%
%ADD46RoundRect,0.062500X-0.375000X-0.062500X0.375000X-0.062500X0.375000X0.062500X-0.375000X0.062500X0*%
%ADD47RoundRect,0.062500X-0.062500X-0.375000X0.062500X-0.375000X0.062500X0.375000X-0.062500X0.375000X0*%
%ADD48R,5.600000X5.600000*%
%ADD49FreePoly4,180.000000*%
%ADD50FreePoly5,180.000000*%
%ADD51FreePoly4,0.000000*%
%ADD52FreePoly5,0.000000*%
%ADD53RotRect,0.520000X0.520000X315.000000*%
%ADD54RotRect,0.520000X0.520000X135.000000*%
%TA.AperFunction,Profile*%
%ADD55C,0.127000*%
%TD*%
G04 APERTURE END LIST*
D10*
X77044947Y-77516424D02*
X77044947Y-78416424D01*
X77044947Y-77559281D02*
X76959233Y-77516424D01*
X76959233Y-77516424D02*
X76787804Y-77516424D01*
X76787804Y-77516424D02*
X76702090Y-77559281D01*
X76702090Y-77559281D02*
X76659233Y-77602138D01*
X76659233Y-77602138D02*
X76616375Y-77687852D01*
X76616375Y-77687852D02*
X76616375Y-77944995D01*
X76616375Y-77944995D02*
X76659233Y-78030709D01*
X76659233Y-78030709D02*
X76702090Y-78073567D01*
X76702090Y-78073567D02*
X76787804Y-78116424D01*
X76787804Y-78116424D02*
X76959233Y-78116424D01*
X76959233Y-78116424D02*
X77044947Y-78073567D01*
X76230661Y-78116424D02*
X76230661Y-77516424D01*
X76230661Y-77216424D02*
X76273518Y-77259281D01*
X76273518Y-77259281D02*
X76230661Y-77302138D01*
X76230661Y-77302138D02*
X76187804Y-77259281D01*
X76187804Y-77259281D02*
X76230661Y-77216424D01*
X76230661Y-77216424D02*
X76230661Y-77302138D01*
X75416376Y-78073567D02*
X75502090Y-78116424D01*
X75502090Y-78116424D02*
X75673518Y-78116424D01*
X75673518Y-78116424D02*
X75759233Y-78073567D01*
X75759233Y-78073567D02*
X75802090Y-78030709D01*
X75802090Y-78030709D02*
X75844947Y-77944995D01*
X75844947Y-77944995D02*
X75844947Y-77687852D01*
X75844947Y-77687852D02*
X75802090Y-77602138D01*
X75802090Y-77602138D02*
X75759233Y-77559281D01*
X75759233Y-77559281D02*
X75673518Y-77516424D01*
X75673518Y-77516424D02*
X75502090Y-77516424D01*
X75502090Y-77516424D02*
X75416376Y-77559281D01*
X74902089Y-78116424D02*
X74987804Y-78073567D01*
X74987804Y-78073567D02*
X75030661Y-78030709D01*
X75030661Y-78030709D02*
X75073518Y-77944995D01*
X75073518Y-77944995D02*
X75073518Y-77687852D01*
X75073518Y-77687852D02*
X75030661Y-77602138D01*
X75030661Y-77602138D02*
X74987804Y-77559281D01*
X74987804Y-77559281D02*
X74902089Y-77516424D01*
X74902089Y-77516424D02*
X74773518Y-77516424D01*
X74773518Y-77516424D02*
X74687804Y-77559281D01*
X74687804Y-77559281D02*
X74644947Y-77602138D01*
X74644947Y-77602138D02*
X74602089Y-77687852D01*
X74602089Y-77687852D02*
X74602089Y-77944995D01*
X74602089Y-77944995D02*
X74644947Y-78030709D01*
X74644947Y-78030709D02*
X74687804Y-78073567D01*
X74687804Y-78073567D02*
X74773518Y-78116424D01*
X74773518Y-78116424D02*
X74902089Y-78116424D01*
X74259232Y-77302138D02*
X74216375Y-77259281D01*
X74216375Y-77259281D02*
X74130661Y-77216424D01*
X74130661Y-77216424D02*
X73916375Y-77216424D01*
X73916375Y-77216424D02*
X73830661Y-77259281D01*
X73830661Y-77259281D02*
X73787803Y-77302138D01*
X73787803Y-77302138D02*
X73744946Y-77387852D01*
X73744946Y-77387852D02*
X73744946Y-77473567D01*
X73744946Y-77473567D02*
X73787803Y-77602138D01*
X73787803Y-77602138D02*
X74302089Y-78116424D01*
X74302089Y-78116424D02*
X73744946Y-78116424D01*
X73359232Y-77773567D02*
X72673518Y-77773567D01*
X72244946Y-78116424D02*
X72244946Y-77516424D01*
X72244946Y-77216424D02*
X72287803Y-77259281D01*
X72287803Y-77259281D02*
X72244946Y-77302138D01*
X72244946Y-77302138D02*
X72202089Y-77259281D01*
X72202089Y-77259281D02*
X72244946Y-77216424D01*
X72244946Y-77216424D02*
X72244946Y-77302138D01*
X71430661Y-78073567D02*
X71516375Y-78116424D01*
X71516375Y-78116424D02*
X71687803Y-78116424D01*
X71687803Y-78116424D02*
X71773518Y-78073567D01*
X71773518Y-78073567D02*
X71816375Y-78030709D01*
X71816375Y-78030709D02*
X71859232Y-77944995D01*
X71859232Y-77944995D02*
X71859232Y-77687852D01*
X71859232Y-77687852D02*
X71816375Y-77602138D01*
X71816375Y-77602138D02*
X71773518Y-77559281D01*
X71773518Y-77559281D02*
X71687803Y-77516424D01*
X71687803Y-77516424D02*
X71516375Y-77516424D01*
X71516375Y-77516424D02*
X71430661Y-77559281D01*
X70702089Y-78073567D02*
X70787803Y-78116424D01*
X70787803Y-78116424D02*
X70959232Y-78116424D01*
X70959232Y-78116424D02*
X71044946Y-78073567D01*
X71044946Y-78073567D02*
X71087803Y-77987852D01*
X71087803Y-77987852D02*
X71087803Y-77644995D01*
X71087803Y-77644995D02*
X71044946Y-77559281D01*
X71044946Y-77559281D02*
X70959232Y-77516424D01*
X70959232Y-77516424D02*
X70787803Y-77516424D01*
X70787803Y-77516424D02*
X70702089Y-77559281D01*
X70702089Y-77559281D02*
X70659232Y-77644995D01*
X70659232Y-77644995D02*
X70659232Y-77730709D01*
X70659232Y-77730709D02*
X71087803Y-77816424D01*
X73926546Y-79284824D02*
X73926546Y-78684824D01*
X73926546Y-78856252D02*
X73883689Y-78770538D01*
X73883689Y-78770538D02*
X73840832Y-78727681D01*
X73840832Y-78727681D02*
X73755117Y-78684824D01*
X73755117Y-78684824D02*
X73669403Y-78684824D01*
X73026546Y-79241967D02*
X73112260Y-79284824D01*
X73112260Y-79284824D02*
X73283689Y-79284824D01*
X73283689Y-79284824D02*
X73369403Y-79241967D01*
X73369403Y-79241967D02*
X73412260Y-79156252D01*
X73412260Y-79156252D02*
X73412260Y-78813395D01*
X73412260Y-78813395D02*
X73369403Y-78727681D01*
X73369403Y-78727681D02*
X73283689Y-78684824D01*
X73283689Y-78684824D02*
X73112260Y-78684824D01*
X73112260Y-78684824D02*
X73026546Y-78727681D01*
X73026546Y-78727681D02*
X72983689Y-78813395D01*
X72983689Y-78813395D02*
X72983689Y-78899109D01*
X72983689Y-78899109D02*
X73412260Y-78984824D01*
X72683688Y-78684824D02*
X72469402Y-79284824D01*
X72469402Y-79284824D02*
X72255117Y-78684824D01*
X71955117Y-78470538D02*
X71912260Y-78427681D01*
X71912260Y-78427681D02*
X71826546Y-78384824D01*
X71826546Y-78384824D02*
X71612260Y-78384824D01*
X71612260Y-78384824D02*
X71526546Y-78427681D01*
X71526546Y-78427681D02*
X71483688Y-78470538D01*
X71483688Y-78470538D02*
X71440831Y-78556252D01*
X71440831Y-78556252D02*
X71440831Y-78641967D01*
X71440831Y-78641967D02*
X71483688Y-78770538D01*
X71483688Y-78770538D02*
X71997974Y-79284824D01*
X71997974Y-79284824D02*
X71440831Y-79284824D01*
D11*
X80240841Y-125696256D02*
X80128460Y-125696256D01*
X80128460Y-125696256D02*
X80072270Y-125724351D01*
X80072270Y-125724351D02*
X80016079Y-125780541D01*
X80016079Y-125780541D02*
X79987984Y-125892922D01*
X79987984Y-125892922D02*
X79987984Y-126089589D01*
X79987984Y-126089589D02*
X80016079Y-126201970D01*
X80016079Y-126201970D02*
X80072270Y-126258161D01*
X80072270Y-126258161D02*
X80128460Y-126286256D01*
X80128460Y-126286256D02*
X80240841Y-126286256D01*
X80240841Y-126286256D02*
X80297032Y-126258161D01*
X80297032Y-126258161D02*
X80353222Y-126201970D01*
X80353222Y-126201970D02*
X80381318Y-126089589D01*
X80381318Y-126089589D02*
X80381318Y-125892922D01*
X80381318Y-125892922D02*
X80353222Y-125780541D01*
X80353222Y-125780541D02*
X80297032Y-125724351D01*
X80297032Y-125724351D02*
X80240841Y-125696256D01*
X79763223Y-126258161D02*
X79678937Y-126286256D01*
X79678937Y-126286256D02*
X79538461Y-126286256D01*
X79538461Y-126286256D02*
X79482270Y-126258161D01*
X79482270Y-126258161D02*
X79454175Y-126230065D01*
X79454175Y-126230065D02*
X79426080Y-126173875D01*
X79426080Y-126173875D02*
X79426080Y-126117684D01*
X79426080Y-126117684D02*
X79454175Y-126061494D01*
X79454175Y-126061494D02*
X79482270Y-126033399D01*
X79482270Y-126033399D02*
X79538461Y-126005303D01*
X79538461Y-126005303D02*
X79650842Y-125977208D01*
X79650842Y-125977208D02*
X79707032Y-125949113D01*
X79707032Y-125949113D02*
X79735127Y-125921018D01*
X79735127Y-125921018D02*
X79763223Y-125864827D01*
X79763223Y-125864827D02*
X79763223Y-125808637D01*
X79763223Y-125808637D02*
X79735127Y-125752446D01*
X79735127Y-125752446D02*
X79707032Y-125724351D01*
X79707032Y-125724351D02*
X79650842Y-125696256D01*
X79650842Y-125696256D02*
X79510365Y-125696256D01*
X79510365Y-125696256D02*
X79426080Y-125724351D01*
X79173222Y-126286256D02*
X79173222Y-125696256D01*
X79173222Y-125977208D02*
X78836079Y-125977208D01*
X78836079Y-126286256D02*
X78836079Y-125696256D01*
X78611318Y-125696256D02*
X78470842Y-126286256D01*
X78470842Y-126286256D02*
X78358461Y-125864827D01*
X78358461Y-125864827D02*
X78246080Y-126286256D01*
X78246080Y-126286256D02*
X78105604Y-125696256D01*
X77431317Y-126286256D02*
X77431317Y-125696256D01*
X77150365Y-126286256D02*
X77150365Y-125696256D01*
X77150365Y-125696256D02*
X77009889Y-125696256D01*
X77009889Y-125696256D02*
X76925603Y-125724351D01*
X76925603Y-125724351D02*
X76869413Y-125780541D01*
X76869413Y-125780541D02*
X76841318Y-125836732D01*
X76841318Y-125836732D02*
X76813222Y-125949113D01*
X76813222Y-125949113D02*
X76813222Y-126033399D01*
X76813222Y-126033399D02*
X76841318Y-126145780D01*
X76841318Y-126145780D02*
X76869413Y-126201970D01*
X76869413Y-126201970D02*
X76925603Y-126258161D01*
X76925603Y-126258161D02*
X77009889Y-126286256D01*
X77009889Y-126286256D02*
X77150365Y-126286256D01*
X76560365Y-126230065D02*
X76532270Y-126258161D01*
X76532270Y-126258161D02*
X76560365Y-126286256D01*
X76560365Y-126286256D02*
X76588461Y-126258161D01*
X76588461Y-126258161D02*
X76560365Y-126230065D01*
X76560365Y-126230065D02*
X76560365Y-126286256D01*
X76560365Y-125921018D02*
X76532270Y-125949113D01*
X76532270Y-125949113D02*
X76560365Y-125977208D01*
X76560365Y-125977208D02*
X76588461Y-125949113D01*
X76588461Y-125949113D02*
X76560365Y-125921018D01*
X76560365Y-125921018D02*
X76560365Y-125977208D01*
X75829889Y-125696256D02*
X75829889Y-126173875D01*
X75829889Y-126173875D02*
X75801794Y-126230065D01*
X75801794Y-126230065D02*
X75773699Y-126258161D01*
X75773699Y-126258161D02*
X75717508Y-126286256D01*
X75717508Y-126286256D02*
X75605127Y-126286256D01*
X75605127Y-126286256D02*
X75548937Y-126258161D01*
X75548937Y-126258161D02*
X75520842Y-126230065D01*
X75520842Y-126230065D02*
X75492746Y-126173875D01*
X75492746Y-126173875D02*
X75492746Y-125696256D01*
X75239890Y-126258161D02*
X75155604Y-126286256D01*
X75155604Y-126286256D02*
X75015128Y-126286256D01*
X75015128Y-126286256D02*
X74958937Y-126258161D01*
X74958937Y-126258161D02*
X74930842Y-126230065D01*
X74930842Y-126230065D02*
X74902747Y-126173875D01*
X74902747Y-126173875D02*
X74902747Y-126117684D01*
X74902747Y-126117684D02*
X74930842Y-126061494D01*
X74930842Y-126061494D02*
X74958937Y-126033399D01*
X74958937Y-126033399D02*
X75015128Y-126005303D01*
X75015128Y-126005303D02*
X75127509Y-125977208D01*
X75127509Y-125977208D02*
X75183699Y-125949113D01*
X75183699Y-125949113D02*
X75211794Y-125921018D01*
X75211794Y-125921018D02*
X75239890Y-125864827D01*
X75239890Y-125864827D02*
X75239890Y-125808637D01*
X75239890Y-125808637D02*
X75211794Y-125752446D01*
X75211794Y-125752446D02*
X75183699Y-125724351D01*
X75183699Y-125724351D02*
X75127509Y-125696256D01*
X75127509Y-125696256D02*
X74987032Y-125696256D01*
X74987032Y-125696256D02*
X74902747Y-125724351D01*
X74537508Y-125696256D02*
X74481318Y-125696256D01*
X74481318Y-125696256D02*
X74425127Y-125724351D01*
X74425127Y-125724351D02*
X74397032Y-125752446D01*
X74397032Y-125752446D02*
X74368937Y-125808637D01*
X74368937Y-125808637D02*
X74340842Y-125921018D01*
X74340842Y-125921018D02*
X74340842Y-126061494D01*
X74340842Y-126061494D02*
X74368937Y-126173875D01*
X74368937Y-126173875D02*
X74397032Y-126230065D01*
X74397032Y-126230065D02*
X74425127Y-126258161D01*
X74425127Y-126258161D02*
X74481318Y-126286256D01*
X74481318Y-126286256D02*
X74537508Y-126286256D01*
X74537508Y-126286256D02*
X74593699Y-126258161D01*
X74593699Y-126258161D02*
X74621794Y-126230065D01*
X74621794Y-126230065D02*
X74649889Y-126173875D01*
X74649889Y-126173875D02*
X74677985Y-126061494D01*
X74677985Y-126061494D02*
X74677985Y-125921018D01*
X74677985Y-125921018D02*
X74649889Y-125808637D01*
X74649889Y-125808637D02*
X74621794Y-125752446D01*
X74621794Y-125752446D02*
X74593699Y-125724351D01*
X74593699Y-125724351D02*
X74537508Y-125696256D01*
X73975603Y-125696256D02*
X73919413Y-125696256D01*
X73919413Y-125696256D02*
X73863222Y-125724351D01*
X73863222Y-125724351D02*
X73835127Y-125752446D01*
X73835127Y-125752446D02*
X73807032Y-125808637D01*
X73807032Y-125808637D02*
X73778937Y-125921018D01*
X73778937Y-125921018D02*
X73778937Y-126061494D01*
X73778937Y-126061494D02*
X73807032Y-126173875D01*
X73807032Y-126173875D02*
X73835127Y-126230065D01*
X73835127Y-126230065D02*
X73863222Y-126258161D01*
X73863222Y-126258161D02*
X73919413Y-126286256D01*
X73919413Y-126286256D02*
X73975603Y-126286256D01*
X73975603Y-126286256D02*
X74031794Y-126258161D01*
X74031794Y-126258161D02*
X74059889Y-126230065D01*
X74059889Y-126230065D02*
X74087984Y-126173875D01*
X74087984Y-126173875D02*
X74116080Y-126061494D01*
X74116080Y-126061494D02*
X74116080Y-125921018D01*
X74116080Y-125921018D02*
X74087984Y-125808637D01*
X74087984Y-125808637D02*
X74059889Y-125752446D01*
X74059889Y-125752446D02*
X74031794Y-125724351D01*
X74031794Y-125724351D02*
X73975603Y-125696256D01*
X73554175Y-125752446D02*
X73526079Y-125724351D01*
X73526079Y-125724351D02*
X73469889Y-125696256D01*
X73469889Y-125696256D02*
X73329413Y-125696256D01*
X73329413Y-125696256D02*
X73273222Y-125724351D01*
X73273222Y-125724351D02*
X73245127Y-125752446D01*
X73245127Y-125752446D02*
X73217032Y-125808637D01*
X73217032Y-125808637D02*
X73217032Y-125864827D01*
X73217032Y-125864827D02*
X73245127Y-125949113D01*
X73245127Y-125949113D02*
X73582270Y-126286256D01*
X73582270Y-126286256D02*
X73217032Y-126286256D01*
X73020365Y-125696256D02*
X72655127Y-125696256D01*
X72655127Y-125696256D02*
X72851793Y-125921018D01*
X72851793Y-125921018D02*
X72767508Y-125921018D01*
X72767508Y-125921018D02*
X72711317Y-125949113D01*
X72711317Y-125949113D02*
X72683222Y-125977208D01*
X72683222Y-125977208D02*
X72655127Y-126033399D01*
X72655127Y-126033399D02*
X72655127Y-126173875D01*
X72655127Y-126173875D02*
X72683222Y-126230065D01*
X72683222Y-126230065D02*
X72711317Y-126258161D01*
X72711317Y-126258161D02*
X72767508Y-126286256D01*
X72767508Y-126286256D02*
X72936079Y-126286256D01*
X72936079Y-126286256D02*
X72992270Y-126258161D01*
X72992270Y-126258161D02*
X73020365Y-126230065D01*
X72458460Y-125696256D02*
X72065126Y-125696256D01*
X72065126Y-125696256D02*
X72317984Y-126286256D01*
X71868460Y-125752446D02*
X71840364Y-125724351D01*
X71840364Y-125724351D02*
X71784174Y-125696256D01*
X71784174Y-125696256D02*
X71643698Y-125696256D01*
X71643698Y-125696256D02*
X71587507Y-125724351D01*
X71587507Y-125724351D02*
X71559412Y-125752446D01*
X71559412Y-125752446D02*
X71531317Y-125808637D01*
X71531317Y-125808637D02*
X71531317Y-125864827D01*
X71531317Y-125864827D02*
X71559412Y-125949113D01*
X71559412Y-125949113D02*
X71896555Y-126286256D01*
X71896555Y-126286256D02*
X71531317Y-126286256D01*
D12*
X74954890Y-124514308D02*
X75068661Y-123982496D01*
X75208229Y-123982496D01*
X75320677Y-124512985D01*
X75415265Y-123711298D01*
X75545572Y-123711298D01*
X75398067Y-124698855D01*
X75271729Y-124698855D01*
X75138114Y-124112142D01*
X75003838Y-124698855D01*
X74877500Y-124698855D01*
X74504216Y-122977520D01*
X74634524Y-122977520D01*
X74954890Y-124514308D01*
G36*
X74954890Y-124514308D02*
G01*
X75068661Y-123982496D01*
X75208229Y-123982496D01*
X75320677Y-124512985D01*
X75415265Y-123711298D01*
X75545572Y-123711298D01*
X75398067Y-124698855D01*
X75271729Y-124698855D01*
X75138114Y-124112142D01*
X75003838Y-124698855D01*
X74877500Y-124698855D01*
X74504216Y-122977520D01*
X74634524Y-122977520D01*
X74954890Y-124514308D01*
G37*
D13*
X60960000Y-132080000D03*
D14*
X69500000Y-128337000D03*
X75280000Y-128337000D03*
D15*
X68070000Y-127807000D03*
D16*
X68070000Y-131987000D03*
D15*
X76710000Y-127807000D03*
D16*
X76710000Y-131987000D03*
D17*
X82550000Y-80010000D03*
D18*
X85090000Y-80010000D03*
X82550000Y-82550000D03*
X85090000Y-82550000D03*
X82550000Y-85090000D03*
X85090000Y-85090000D03*
X82550000Y-87630000D03*
X85090000Y-87630000D03*
X82550000Y-90170000D03*
X85090000Y-90170000D03*
X82550000Y-92710000D03*
X85090000Y-92710000D03*
X82550000Y-95250000D03*
X85090000Y-95250000D03*
X82550000Y-97790000D03*
X85090000Y-97790000D03*
X82550000Y-100330000D03*
X85090000Y-100330000D03*
X82550000Y-102870000D03*
X85090000Y-102870000D03*
X82550000Y-105410000D03*
X85090000Y-105410000D03*
X82550000Y-107950000D03*
X85090000Y-107950000D03*
X82550000Y-110490000D03*
X85090000Y-110490000D03*
X82550000Y-113030000D03*
X85090000Y-113030000D03*
X82550000Y-115570000D03*
X85090000Y-115570000D03*
X82550000Y-118110000D03*
X85090000Y-118110000D03*
X82550000Y-120650000D03*
X85090000Y-120650000D03*
X82550000Y-123190000D03*
X85090000Y-123190000D03*
X82550000Y-125730000D03*
X85090000Y-125730000D03*
X82550000Y-128270000D03*
X85090000Y-128270000D03*
D13*
X83820000Y-73660000D03*
D17*
X59690000Y-80010000D03*
D18*
X62230000Y-80010000D03*
X59690000Y-82550000D03*
X62230000Y-82550000D03*
X59690000Y-85090000D03*
X62230000Y-85090000D03*
X59690000Y-87630000D03*
X62230000Y-87630000D03*
X59690000Y-90170000D03*
X62230000Y-90170000D03*
X59690000Y-92710000D03*
X62230000Y-92710000D03*
X59690000Y-95250000D03*
X62230000Y-95250000D03*
X59690000Y-97790000D03*
X62230000Y-97790000D03*
X59690000Y-100330000D03*
X62230000Y-100330000D03*
X59690000Y-102870000D03*
X62230000Y-102870000D03*
X59690000Y-105410000D03*
X62230000Y-105410000D03*
X59690000Y-107950000D03*
X62230000Y-107950000D03*
X59690000Y-110490000D03*
X62230000Y-110490000D03*
X59690000Y-113030000D03*
X62230000Y-113030000D03*
X59690000Y-115570000D03*
X62230000Y-115570000D03*
X59690000Y-118110000D03*
X62230000Y-118110000D03*
X59690000Y-120650000D03*
X62230000Y-120650000D03*
X59690000Y-123190000D03*
X62230000Y-123190000D03*
X59690000Y-125730000D03*
X62230000Y-125730000D03*
X59690000Y-128270000D03*
X62230000Y-128270000D03*
D19*
X73240000Y-105830000D03*
X72390000Y-105830000D03*
X71540000Y-105830000D03*
X73240000Y-106680000D03*
X72390000Y-106680000D03*
X71540000Y-106680000D03*
X73240000Y-107530000D03*
X72390000Y-107530000D03*
X71540000Y-107530000D03*
D13*
X83820000Y-132080000D03*
X60960000Y-73660000D03*
D20*
X70612000Y-129764000D03*
D21*
X70612000Y-131064000D03*
D22*
X70612000Y-132364000D03*
D23*
X65285718Y-124722071D03*
X64325718Y-124722071D03*
D24*
X80708118Y-114485871D03*
X79688118Y-114485871D03*
D25*
X70520718Y-101834071D03*
X70520718Y-100874071D03*
D26*
X67599718Y-124658071D03*
X67599718Y-123008071D03*
D27*
X68031518Y-89545671D03*
X68031518Y-90505671D03*
D28*
X73444318Y-76411271D03*
X74404318Y-76411271D03*
D29*
X74455718Y-72489071D03*
D30*
X74963718Y-114206471D03*
X75983718Y-114206471D03*
D27*
X67066318Y-89545671D03*
X67066318Y-90505671D03*
X67523518Y-106208071D03*
X67523518Y-107168071D03*
X78775718Y-88428071D03*
X78775718Y-89388071D03*
D28*
X66484718Y-116695671D03*
X67444718Y-116695671D03*
X64269718Y-80676071D03*
X65229718Y-80676071D03*
D27*
X77835918Y-88428071D03*
X77835918Y-89388071D03*
D28*
X64325718Y-121039071D03*
X65285718Y-121039071D03*
D31*
X64710918Y-76411271D03*
X64710918Y-75141271D03*
X64710918Y-73871271D03*
X64710918Y-72601271D03*
X71910918Y-72601271D03*
X71910918Y-73871271D03*
X71910918Y-75141271D03*
X71910918Y-76411271D03*
D32*
X74559318Y-110195271D03*
X74559318Y-109175271D03*
D20*
X74168000Y-129764000D03*
D21*
X74168000Y-131064000D03*
D22*
X74168000Y-132364000D03*
D33*
X64805718Y-130282671D03*
X64805718Y-131302671D03*
D32*
X75524518Y-110195271D03*
X75524518Y-109175271D03*
D30*
X79688118Y-115451071D03*
X80708118Y-115451071D03*
D32*
X69123718Y-119997671D03*
X69123718Y-118977671D03*
D23*
X74421647Y-80388753D03*
X73461647Y-80388753D03*
D33*
X67472718Y-110498071D03*
X67472718Y-111518071D03*
D34*
X79581718Y-118118071D03*
X79581718Y-119388071D03*
X79581718Y-120658071D03*
X79581718Y-121928071D03*
X72381718Y-121928071D03*
X72381718Y-120658071D03*
X72381718Y-119388071D03*
X72381718Y-118118071D03*
D24*
X75983718Y-113292071D03*
X74963718Y-113292071D03*
D25*
X67091718Y-87737071D03*
X67091718Y-86777071D03*
D33*
X63103918Y-76411271D03*
X63103918Y-77431271D03*
D35*
X64932718Y-89502671D03*
D36*
X64932718Y-90802671D03*
D33*
X78826518Y-130282671D03*
X78826518Y-131302671D03*
D37*
X69377718Y-122910071D03*
X69377718Y-125010071D03*
D29*
X63662718Y-133350000D03*
D32*
X67421918Y-104607271D03*
X67421918Y-103587271D03*
D27*
X74584718Y-100874071D03*
X74584718Y-101834071D03*
D28*
X72575718Y-103389071D03*
X73535718Y-103389071D03*
D38*
X67940118Y-115220171D03*
X66040118Y-115220171D03*
X66990118Y-113345171D03*
D29*
X80248918Y-133350000D03*
D39*
X77255718Y-115989071D03*
X75155718Y-115989071D03*
D28*
X75727718Y-81912753D03*
X76687718Y-81912753D03*
D33*
X68158518Y-118977671D03*
X68158518Y-119997671D03*
X67472718Y-108489471D03*
X67472718Y-109509471D03*
D25*
X78140718Y-85679671D03*
X78140718Y-84719671D03*
D33*
X67421918Y-101707671D03*
X67421918Y-102727671D03*
D30*
X79688118Y-116416271D03*
X80708118Y-116416271D03*
D35*
X79410718Y-95739071D03*
D36*
X79410718Y-97039071D03*
D27*
X77302518Y-109179871D03*
X77302518Y-110139871D03*
D40*
X79410718Y-100353071D03*
D41*
X79410718Y-99053071D03*
D23*
X72778718Y-116594071D03*
X71818718Y-116594071D03*
D33*
X79893318Y-130282671D03*
X79893318Y-131302671D03*
X79080518Y-86543871D03*
X79080518Y-87563871D03*
D42*
X66375718Y-124709071D03*
X66375718Y-125709071D03*
D43*
X76358118Y-73160071D03*
D44*
X77658118Y-73160071D03*
D45*
X75738918Y-80820553D03*
X77138918Y-80820553D03*
D40*
X65313718Y-87526071D03*
D41*
X65313718Y-86226071D03*
D35*
X70012718Y-116045671D03*
D36*
X70012718Y-117345671D03*
D46*
X69242218Y-89499071D03*
X69242218Y-88999071D03*
X69242218Y-88499071D03*
X69242218Y-87999071D03*
X69242218Y-87499071D03*
X69242218Y-86999071D03*
X69242218Y-86499071D03*
X69242218Y-85999071D03*
X69242218Y-85499071D03*
X69242218Y-84999071D03*
X69242218Y-84499071D03*
X69242218Y-83999071D03*
D47*
X69929718Y-83311571D03*
X70429718Y-83311571D03*
X70929718Y-83311571D03*
X71429718Y-83311571D03*
X71929718Y-83311571D03*
X72429718Y-83311571D03*
X72929718Y-83311571D03*
X73429718Y-83311571D03*
X73929718Y-83311571D03*
X74429718Y-83311571D03*
X74929718Y-83311571D03*
X75429718Y-83311571D03*
D46*
X76117218Y-83999071D03*
X76117218Y-84499071D03*
X76117218Y-84999071D03*
X76117218Y-85499071D03*
X76117218Y-85999071D03*
X76117218Y-86499071D03*
X76117218Y-86999071D03*
X76117218Y-87499071D03*
X76117218Y-87999071D03*
X76117218Y-88499071D03*
X76117218Y-88999071D03*
X76117218Y-89499071D03*
D47*
X75429718Y-90186571D03*
X74929718Y-90186571D03*
X74429718Y-90186571D03*
X73929718Y-90186571D03*
X73429718Y-90186571D03*
X72929718Y-90186571D03*
X72429718Y-90186571D03*
X71929718Y-90186571D03*
X71429718Y-90186571D03*
X70929718Y-90186571D03*
X70429718Y-90186571D03*
X69929718Y-90186571D03*
D48*
X72679718Y-86749071D03*
D49*
X65003718Y-82916071D03*
D50*
X64353718Y-82916071D03*
D51*
X64353718Y-81946071D03*
D52*
X65003718Y-81946071D03*
D53*
X64678718Y-82431071D03*
D23*
X65229718Y-84232071D03*
X64269718Y-84232071D03*
D27*
X78107247Y-80848553D03*
X78107247Y-81808553D03*
D25*
X79080518Y-85679671D03*
X79080518Y-84719671D03*
D33*
X69276118Y-113417071D03*
X69276118Y-114437071D03*
D43*
X71293118Y-113723871D03*
D44*
X72593118Y-113723871D03*
D51*
X64551718Y-122482071D03*
D52*
X65201718Y-122482071D03*
D49*
X65201718Y-123452071D03*
D50*
X64551718Y-123452071D03*
D54*
X64876718Y-122967071D03*
D33*
X65923318Y-130282671D03*
X65923318Y-131302671D03*
D23*
X74421647Y-81353953D03*
X73461647Y-81353953D03*
D43*
X76332718Y-75395271D03*
D44*
X77632718Y-75395271D03*
D55*
X82550000Y-134620000D02*
X62230000Y-134620000D01*
X86360000Y-74930000D02*
X86360000Y-130810000D01*
X62230000Y-71120000D02*
X82550000Y-71120000D01*
X58420000Y-130810000D02*
X58420000Y-74930000D01*
X62230000Y-134620000D02*
G75*
G02*
X58420000Y-130810000I109500J3919500D01*
G01*
X58420000Y-74930000D02*
G75*
G02*
X62230000Y-71120000I3754300J55700D01*
G01*
X82550000Y-71120000D02*
G75*
G02*
X86360000Y-74930000I55700J-3754300D01*
G01*
X86360000Y-130810000D02*
G75*
G02*
X82550000Y-134620000I-3919500J109500D01*
G01*
M02*
